<svg width="128" height="128" viewBox="0 0 128 128" fill="none" xmlns="http://www.w3.org/2000/svg">
<g clip-path="url(#clip0_2_3)">
<path d="M71.904 70.88C71.904 76.32 69.312 80.992 64.128 84.896C58.944 88.8 53.024 90.752 46.368 90.752C39.712 90.752 34.336 89.12 30.24 85.856C26.208 82.528 24.192 79.104 24.192 75.584C24.192 72.064 25.184 70.304 27.168 70.304C28.704 70.304 30.304 71.072 31.968 72.608C33.632 74.144 35.488 75.68 37.536 77.216C39.648 78.752 42.016 79.52 44.64 79.52C47.264 79.52 50.24 78.432 53.568 76.256C56.896 74.08 58.56 72.256 58.56 70.784C58.56 69.312 56.736 66.848 53.088 63.392C49.504 59.936 45.888 56.384 42.24 52.736C38.656 49.024 36.864 46.176 36.864 44.192C36.864 42.144 37.216 39.936 37.92 37.568C38.688 35.2 39.616 33.568 40.704 32.672C44.16 29.28 48.608 26.368 54.048 23.936C59.552 21.44 64.384 20.192 68.544 20.192C70.976 20.192 72.992 21.248 74.592 23.36C76.192 25.408 76.992 27.552 76.992 29.792C76.992 30.688 76.256 31.424 74.784 32C73.376 32.512 71.296 33.056 68.544 33.632C65.856 34.208 63.104 35.04 60.288 36.128C53.76 38.56 50.496 40.608 50.496 42.272C50.496 43.04 51.616 44.448 53.856 46.496C56.096 48.48 58.528 50.592 61.152 52.832C63.84 55.008 66.304 57.792 68.544 61.184C70.784 64.512 71.904 67.744 71.904 70.88Z" fill="#F6C057"/>
<path d="M88.928 53.288C89.952 53.288 91.296 54.2267 92.96 56.104C94.624 57.9387 95.456 59.6667 95.456 61.288C95.456 62.0987 94.7093 65.4693 93.216 71.4C91.7227 77.3307 90.8267 80.9147 90.528 82.152C87.1147 96.872 84.6187 104.232 83.04 104.232C82.144 104.232 81.1413 103.699 80.032 102.632C78.9227 101.565 78.368 100.52 78.368 99.496C78.368 99.2827 78.3893 99.112 78.432 98.984C74.1653 102.483 71.0933 104.232 69.216 104.232C67.3813 104.232 65.5893 103.251 63.84 101.288C62.1333 99.2827 61.28 97.4693 61.28 95.848C61.28 94.2267 61.4933 92.4347 61.92 90.472C62.3893 88.4667 63.0933 86.3547 64.032 84.136C64.9707 81.9173 66.0373 79.848 67.232 77.928C68.4693 75.9653 69.9413 74.3653 71.648 73.128C73.3973 71.848 75.1893 71.208 77.024 71.208C79.7547 71.208 81.9947 72.5947 83.744 75.368C86.048 65.256 87.1573 58.536 87.072 55.208C87.072 53.928 87.6907 53.288 88.928 53.288ZM70.048 96.104C71.1147 96.104 72.9067 95.1867 75.424 93.352C77.984 91.5173 79.8827 89.192 81.12 86.376C81.0773 86.0347 81.056 85.288 81.056 84.136C81.056 82.984 80.672 81.896 79.904 80.872C79.136 79.848 78.432 79.336 77.792 79.336C76.512 79.336 75.2747 80.0187 74.08 81.384C72.928 82.7493 72.0107 84.3707 71.328 86.248C69.8773 90.216 69.152 93.224 69.152 95.272C69.152 95.6133 69.1947 95.848 69.28 95.976C69.408 96.0613 69.664 96.104 70.048 96.104Z" fill="#F6C057"/>
</g>
<defs>
<clipPath id="clip0_2_3">
<rect width="128" height="128" fill="white"/>
</clipPath>
</defs>
</svg>
